# xmcd CD database file
#
# Track frame offsets:
#	150
#	14182
#	26082
#	40287
#	53505
#	67545
#	80557
#	95828
#	109196
#	119994
#	128851
#	144062
#	156267
#	168678
#	183244
#	196647
#	208342
#	222811
#	235283
#	248172
#	259579
#	274884
#	289056
#	298996
#
# Disc length: 4100 seconds
#
# Revision: 0
# Processed by: cddbd v1.5.2PL0 Copyright (c) Steve Scherf et al.
# Submitted via: CDex 1.82
#
DISCID=72100218
DTITLE=Tommy Dorsey - Tenderly - The Best Of The Decca Years_CD3
DYEAR=2018
DGENRE=Jazz
TTITLE0=Cheek To Cheek
TTITLE1=Sentimental Journey
TTITLE2=You Could Make Me Smile Again
TTITLE3=Something To Remember You By
TTITLE4=This Nearly Was Mine
TTITLE5=Trouble In Mind
TTITLE6=Oh! Look At Me Now
TTITLE7=Dancing In The Dark
TTITLE8=Fruit Cocktail
TTITLE9=Charmaine
TTITLE10=Flower Of Dawn
TTITLE11=Sentimental Me and Romantic You
TTITLE12=I See Your Face Before Mine
TTITLE13=Marcheta
TTITLE14=Turbans On Parade
TTITLE15=One Kiss
TTITLE16=Lize Jane
TTITLE17=Ecstasy
TTITLE18=Goin' Home
TTITLE19=The Most Beautiful Girl In The World
TTITLE20=T.D.'s Boogie Woogie
TTITLE21=Mr. Freddie Blues
TTITLE22=I'm Gettin' Sentimental Over You (Chorus)
TTITLE23=I'm Gettin' Sentimental Over You (Instrumental)
EXTD=YEAR: 2018
EXTT0=
EXTT1=
EXTT2=
EXTT3=
EXTT4=
EXTT5=
EXTT6=
EXTT7=
EXTT8=
EXTT9=
EXTT10=
EXTT11=
EXTT12=
EXTT13=
EXTT14=
EXTT15=
EXTT16=
EXTT17=
EXTT18=
EXTT19=
EXTT20=
EXTT21=
EXTT22=
EXTT23=
PLAYORDER=
